<?xml version="1.0" encoding="UTF-8"?>
<svg id="Layer_2" xmlns="http://www.w3.org/2000/svg" viewBox="0 0 327.47 179.68">
  <defs>
    <style>
      .cls-1 {
        fill: none;
        stroke: #cce515;
        stroke-linecap: round;
        stroke-linejoin: round;
        stroke-width: 7px;
      }

      .cls-2 {
        fill: #cce515;
      }

      .cls-3 {
        fill: #d3f21d;
      }
    </style>
  </defs>
  <g id="Layer_1-2" data-name="Layer_1">
    <g>
      <g>
        <path d="M4.84,147.95H0v-5.72h5.06v-10.7h6.89v10.7h8.94v5.72h-8.94v16.49c0,7.4,5.2,8.35,7.92,8.35,1.03,0,1.69-.15,1.69-.15v6.3s-1.03.15-2.49.15c-4.76,0-14.22-1.47-14.22-13.85v-17.3Z"/>
        <path d="M45.51,140.84c10.48,0,16.05,7.77,16.05,17.37,0,.95-.22,3.08-.22,3.08h-27.04c.37,8.13,6.16,12.24,12.75,12.24s10.99-4.32,10.99-4.32l2.93,5.2s-5.5,5.28-14.36,5.28c-11.65,0-19.64-8.43-19.64-19.42,0-11.8,7.99-19.42,18.54-19.42ZM54.31,155.93c-.22-6.38-4.18-9.45-8.94-9.45-5.42,0-9.82,3.37-10.85,9.45h19.79Z"/>
        <path d="M70.65,169.2s4.18,4.32,10.63,4.32c3.08,0,6.16-1.61,6.16-4.62,0-6.82-19.05-5.42-19.05-17.52,0-6.74,6.01-10.55,13.41-10.55,8.13,0,11.95,4.1,11.95,4.1l-2.86,5.35s-3.3-3.3-9.16-3.3c-3.08,0-6.08,1.32-6.08,4.54,0,6.67,19.05,5.2,19.05,17.37,0,6.16-5.28,10.77-13.41,10.77-9.09,0-14.07-5.42-14.07-5.42l3.44-5.06Z"/>
        <path d="M104.59,147.95h-4.84v-5.72h5.06v-10.7h6.89v10.7h8.94v5.72h-8.94v16.49c0,7.4,5.2,8.35,7.92,8.35,1.03,0,1.69-.15,1.69-.15v6.3s-1.03.15-2.49.15c-4.76,0-14.22-1.47-14.22-13.85v-17.3Z"/>
        <path class="cls-3" d="M127.97,165.9v-38.11h12.61v38.55c0,2.49,1.17,3.22,2.05,3.22.44,0,.73,0,1.32-.15l1.47,9.23c-1.32.59-3.37,1.03-6.16,1.03-8.5,0-11.29-5.57-11.29-13.78Z"/>
        <path class="cls-3" d="M147.9,160.48c0-11.87,8.65-19.2,17.59-19.2,10.85,0,15.98,7.92,15.98,17.74,0,2.2-.29,4.4-.51,5.28h-20.89c1.17,4.4,4.4,5.86,8.5,5.86,2.49,0,4.84-.73,7.48-2.2l4.1,7.48c-3.96,2.79-9.23,4.25-13.34,4.25-10.7,0-18.91-7.04-18.91-19.2ZM170.77,156.08c0-2.78-1.17-5.28-4.98-5.28-2.79,0-5.13,1.61-5.86,5.28h10.85Z"/>
        <path class="cls-3" d="M188.36,142.16h10.26l.88,4.47h.29c2.93-2.86,6.01-5.35,10.99-5.35s8.14,2.05,10.11,5.86c3-3.08,6.3-5.86,11.29-5.86,8.06,0,11.58,5.86,11.58,14.95v22.57h-12.61v-20.96c0-4.69-1.17-5.86-3.66-5.86-1.47,0-3.23.88-5.13,2.79v24.04h-12.61v-20.96c0-4.69-1.17-5.86-3.66-5.86-1.47,0-3.22.88-5.13,2.79v24.04h-12.61v-36.64Z"/>
        <path class="cls-3" d="M250.07,160.48c0-12.17,8.79-19.2,18.18-19.2s18.18,7.04,18.18,19.2-8.79,19.2-18.18,19.2-18.18-7.04-18.18-19.2ZM273.53,160.48c0-5.57-1.47-9.09-5.28-9.09s-5.28,3.52-5.28,9.09,1.47,9.09,5.28,9.09,5.28-3.52,5.28-9.09Z"/>
        <path class="cls-3" d="M293.02,142.16h10.26l.88,4.4h.29c2.93-2.78,6.6-5.28,11.58-5.28,8.06,0,11.43,5.86,11.43,14.95v22.57h-12.61v-20.96c0-4.69-1.17-5.86-3.66-5.86-2.35,0-3.66,1.03-5.57,2.79v24.04h-12.61v-36.64Z"/>
      </g>
      <g>
        <path class="cls-2" d="M240.11,126.12h-78.5c-6.66,0-10-8.05-5.29-12.76l55.51-55.51c3.13-3.13,8.32-2.89,11.09.57,13.35,16.65,22.18,37.08,24.63,59.43.48,4.42-2.99,8.27-7.44,8.27Z"/>
        <path class="cls-2" d="M137.25,101.77V23.27c0-4.44,3.85-7.92,8.27-7.44,22.35,2.45,42.78,11.28,59.43,24.63,3.46,2.77,3.71,7.95.57,11.09l-55.51,55.51c-4.71,4.71-12.76,1.37-12.76-5.29Z"/>
        <path class="cls-2" d="M115.58,107.06l-55.51-55.51c-3.13-3.13-2.89-8.32.57-11.09,16.65-13.35,37.08-22.18,59.43-24.63,4.42-.48,8.27,2.99,8.27,7.44v78.5c0,6.66-8.05,10-12.76,5.29Z"/>
        <path class="cls-2" d="M103.99,126.12H25.48c-4.44,0-7.92-3.85-7.44-8.27,2.45-22.35,11.28-42.78,24.63-59.43,2.77-3.46,7.95-3.71,11.09-.57l55.51,55.51c4.71,4.71,1.37,12.76-5.29,12.76Z"/>
      </g>
      <path class="cls-1" d="M8.01,122.55C8.01,56.8,63.88,3.5,132.79,3.5s124.78,53.3,124.78,119.05"/>
    </g>
  </g>
</svg>